<svg version="1" xmlns="http://www.w3.org/2000/svg" width="3222.667" height="3222.667" viewBox="0 0 2417.000000 2417.000000"><path d="M1209.6 3.7c-.4 1.6-2.2 7.7-4.1 13.8-6 19-12.9 42-14 46.5-.2.8-1 3.5-1.9 6-.8 2.5-1.7 5.6-2 7-.2 1.4-.9 3.8-1.6 5.5-.6 1.6-1.1 3.1-1.1 3.2 0 .2-.1.8-.4 1.5-.7 2.5-7.6 26.3-8 28.1-.2 1-2.7 9.7-5.6 19.5-2.8 9.7-5.3 18.4-5.5 19.2-.2.8-1 4-1.9 7-.9 3-1.8 6.6-2.1 7.9-.3 1.3-.9 3.2-1.5 4.3-.5 1-.8 1.8-.5 1.8.2 0-.3 2.1-1.1 4.7-2.3 7.6-13.5 48.5-14 51.2-.2 1.4-.6 2.8-.9 3.3-.3.4-.7 1.6-.9 2.5-.2 1-1.3 5.2-2.4 9.3-2.5 8.9-2.5 8.6-4.6 17.5-.9 3.8-1.8 7.7-2.1 8.5-1.3 4.9-3.6 14.1-4.3 17.5-.5 2.2-2.1 9.2-3.5 15.5-1.5 6.3-2.9 12.5-3.2 13.7-.7 3.7-1.3 6.6-1.8 9.2-.9 3.8-6.4 32.1-7.2 36.6-2 11.4-5.3 33.1-6 39.5-.3 2.5-.7 5.2-.9 6-.2.8-.7 4.8-1 8.9-.4 4.1-.8 7.8-1 8.1-.2.3-.7 4.6-1 9.6-.3 4.9-.8 9.6-1 10.4-.2.8-.6 6.2-1 12-.3 5.8-.8 12.6-1.1 15.2-.3 2.6-.8 15-1 27.5-.3 12.5-.5 23.2-.5 23.8-.2 3.8 1.1 40.9 1.5 44.5.3 2.5.8 9 1.1 14.4.4 5.5.8 10.3 1 10.6.2.3.6 4.6 1 9.4.3 4.9.7 9.2.9 9.5.2.3.7 3.7 1.1 7.6.4 3.8.8 7.2 1 7.5.2.3.6 3.2.9 6.4.4 3.2.8 6.2 1 6.5.2.3.7 2.8 1 5.5.4 2.7.9 5.3 1.1 5.6.3.4.7 2.5 1 4.6.2 2.1.7 5 1 6.4.3 1.4.7 3.6.9 5 .3 1.4.7 3.2 1 4 .3.8.7 2.6 1 4 .2 1.4.9 4.5 1.6 7 .7 2.5 1.4 5.6 1.7 7 .2 1.4 1.2 5.4 2.2 9 1.1 3.6 2.2 7.8 2.7 9.5 1 4.2 1.1 4.5 1.4 4.7.1.2.3 1 .5 1.9.1.9 1.1 4.3 2.1 7.5.9 3.3 1.8 6.3 2 6.9.8 3.6 9.2 28.2 12.5 37.2 2.2 5.9 4.2 11.5 4.4 12.3.2.8 2 5.5 4 10.5 2 4.9 4.6 11.2 5.7 14 1.1 2.7 3.1 7.4 4.4 10.3 1.3 2.9 2.4 5.5 2.4 5.7 0 .3 1.6 4 3.5 8.2 2 4.3 5 10.9 6.8 14.8 4.1 9 30 60.8 33 66 1.3 2.2 3.7 6.5 5.3 9.5 1.6 3 3.3 5.8 3.7 6.1.5.3.8.9.7 1.3 0 .4 2.4 5 5.5 10.4 3.1 5.3 6.1 10.6 6.7 11.7 5.2 9.2 9.3 16.1 9.7 16.5.3.3 1.2 1.6 2 3 3.3 5.6 8.1 13.6 8.8 14.6 1.2 1.6 3.1 4.6 4.9 7.8 2.1 3.7 13 20.8 14.4 22.3.5.7 1 1.5 1 1.8 0 .6 4 6.6 7.3 11 .4.5 4 5.9 8 12 3.9 6 7.8 11.6 8.5 12.3.6.7 1.2 1.7 1.2 2.2 0 .5.6 1.5 1.3 2.2.6.7 4.1 5.6 7.6 10.8 3.6 5.2 6.8 9.6 7.3 9.8.4.2.8 1 .8 1.8s.7 1.7 1.5 2c.8.3 1.7 1.4 2 2.4.3 1 1.3 2.7 2.3 3.8.9 1.1 2.4 3 3.2 4.2 3.1 4.6 8.4 11.5 9.3 12.1.5.3.9 1 .9 1.5.1 1.1 5 7.8 6.1 8.2.4.2.7 1 .7 1.8s.7 1.7 1.5 2c.8.4 1.5 1 1.5 1.5 0 1 13.1 19.3 14.2 19.7.5.2.8 1 .8 1.8s.4 1.4.9 1.4 1.2.8 1.5 1.7c.3 1 1.6 2.9 2.9 4.3 1.2 1.4 3.2 4.1 4.4 6 1.2 2 3 4.6 4 5.7 1 1.2 4.1 5.4 6.8 9.4 2.8 3.9 8.2 11.7 12.2 17.3 4 5.5 8.6 12.1 10.3 14.6 1.7 2.5 5.6 7.9 8.5 12 3 4.1 5.9 8.4 6.4 9.5.5 1.1 2.1 3.3 3.5 4.9 1.4 1.6 2.6 3.3 2.6 3.7 0 .4.6 1.4 1.3 2.1.6.7 3.2 4.2 5.5 7.7 6.8 10 8.6 12.6 9.5 13.2.5.3.8 1 .8 1.5s.8 1.9 1.9 3.1c1 1.2 1.6 2.4 1.3 2.7-.4.3-.1.6.5.6s1.4.9 1.7 2c.4 1.1 1.8 3.2 3.1 4.5 1.4 1.4 2.3 2.5 2 2.5-.3 0 1.3 2.6 3.4 5.7 2.2 3.2 4.5 6.5 5 7.3 8.7 13.2 14.4 21.6 15.2 22.1.5.3.9 1 .8 1.4-.1.4.7 1.8 1.9 3.1 1.1 1.3 1.8 2.4 1.5 2.4-.4 0 .5 1.5 2 3.4 1.4 1.9 2.6 3.8 2.6 4.1 0 .4.6 1.2 1.3 2 .6.7 2.6 3.6 4.2 6.4 1.7 2.8 3.3 5.1 3.8 5.1.4 0 .7.5.7 1 0 .6 2.3 4.4 5 8.5 2.8 4.1 5 7.9 5 8.4 0 .6.8 1.5 1.8 2 .9.6 1.4 1.1.9 1.1-.7 0 4 7.9 5.4 9 .4.3 1.6 2.3 2.7 4.6 1.1 2.2 2.8 4.6 3.6 5.3.9.8 1.6 1.7 1.6 2.2 0 .9 4.8 8.7 6 9.9.3.3 1.6 2.5 2.9 5 1.4 2.5 2.9 4.8 3.4 5.1.5.3.8.8.6 1-.1.2 1 2.3 2.4 4.6 1.5 2.4 2.7 4.7 2.7 5.3 0 .5.4 1 .9 1s1.4 1.3 2.1 3c.7 1.6 1.6 3 2.1 3s.9.9.9 2 .4 2 .9 2 1.5 1.2 2.2 2.8c1.6 3 7.7 13.5 11.5 19.7 1.3 2.2 3 5.1 3.7 6.5.6 1.4 1.6 2.8 2.2 3.2.6.5.6.8 0 .8s-.6.3.1.8c.5.4 2.8 3.8 4.9 7.7 2.2 3.8 5 8.8 6.2 11 1.3 2.2 2.9 5.1 3.6 6.5.6 1.4 1.4 2.7 1.7 3 .3.3 2.1 3.4 3.9 7 1.9 3.6 3.8 6.8 4.3 7.1.5.3.9.8.8 1-.3.6 2.3 6.3 3.1 6.9.4.3 3.2 5.7 6.4 12s6.1 11.6 6.6 11.8c.5.2.9.9.9 1.5 0 1.6 4.3 10.1 5.3 10.5.4.2.5.8.1 1.3-.3.5 0 .9.5.9.6 0 1.1.3 1 .7-.2 1.5 1.3 5.3 2.1 5.3.5 0 1.1 1.4 1.5 3 .4 1.7 1.1 3 1.6 3 .6 0 .7.4.4 1-.3.5-.1 1 .4 1 .6 0 1.1.5 1.1 1 0 1.5 4.2 10.4 5.3 11.1.5.3.8.9.7 1.3 0 .3 2 5 4.6 10.4 5 10.4 7.4 15.8 9.5 20.9.8 1.8 1.7 3.3 2.1 3.3.5 0 .8.6.8 1.4 0 .8 1.6 4.9 3.5 9 1.9 4.2 3.5 7.9 3.5 8.2 0 .4.9 2.5 1.9 4.8 3.4 7.2 6.1 13.6 6.1 14.1 0 .4.8 2.5 1.9 4.8 1.9 4.4 3 7.2 3.2 8.5 0 .4.4 1.1.9 1.7.4.5 1.3 2.8 2 5s2 5.6 2.8 7.5c.9 1.9 1.7 4.4 1.9 5.4.2 1.1.8 2.5 1.4 3.3.6.7.9 1.3.5 1.3s0 1.2.7 2.7c1.5 3 12.4 35.1 15.2 44.8.9 3.3 2.3 7.7 3.1 9.7.7 2 1.6 4.8 1.9 6.2.3 1.5.7 3.8 1 5.3.3 1.4 1 3.4 1.6 4.5.5 1 .7 1.8.3 1.8-.3 0-.1.7.6 1.5.7.9 1 1.8.8 2.1-.3.3.2 3.3 1.3 6.6 1 3.3 1.8 6.4 1.7 6.7-.1.3.1 1.3.5 2.1.3.8.9 3.3 1.3 5.5s.8 4.4 1 5c.8 3.3 5.5 27.7 5.8 30.1.4 2.8 1 6.3 2.1 12.9.3 1.6.7 4.8 1 7 .2 2.2.6 6 1 8.5.6 5.1 1.1 10.4 2.1 23.5 1.3 16.4.7 58.6-1 71.5-.2 1.9-.7 6.4-1.1 10-.4 3.6-.9 7.4-1.1 8.5-.7 3.2-2.2 12.3-2.8 17-1.4 9.9-3.1 20-4.1 23.5-.2.8-.7 2.8-1 4.5-.2 1.6-.7 4.1-1 5.5-.3 1.4-.8 4.1-1.1 6-.5 2.9-2.5 11.8-8.4 36.8-.4 1.7-.6 3.2-.3 3.2s0 .7-.7 1.5-1 1.5-.7 1.5c.4 0 0 1.8-.8 4s-1.2 4-1 4c.2 0-.3 1.6-1.1 3.5s-1.2 3.5-.9 3.5c.2 0 0 1.2-.6 2.7-1 2.5-4.3 14-5.4 18.6-.2 1-1.6 5.7-3.2 10.5-1.5 4.8-2.8 9-2.9 9.4-.1.5-.3 1-.4 1.3-.1.3-.3.8-.5 1.2-.1.5-.4 1.5-.8 2.3-.3.8-1.7 5.3-3.2 10-1.5 4.7-3.5 10.5-4.5 13-3.5 8.7-8.1 21.5-8.5 23.9-.3 1.4-1 2.8-1.7 3.3-.7.4-1 .8-.6.8.3 0-1 3.7-2.9 8.2-1.9 4.6-3.7 9.1-4 10.2-.4 1-1.9 4.5-3.5 7.8-1.5 3.2-2.8 6.3-2.8 6.8 0 .6-.4 1.8-1 2.8-2 3.5-8 17.1-8 18.2 0 .5-.4 1-1 1-.5 0-1 .9-1 1.9 0 1.1-.7 2.6-1.5 3.5-.8.8-1.5 1.8-1.5 2.1 0 .4-1.4 3.7-3.2 7.3-1.7 3.7-3.1 7.3-3.1 7.9 0 .7-.3 1.3-.7 1.3-.3 0-3 4.6-5.9 10.2-2.9 5.7-6.2 12.1-7.5 14.3-1.2 2.2-3.6 6.5-5.3 9.5-6.6 11.9-8.8 15.7-12 20.7-1.8 2.9-3.3 5.5-3.3 5.8 0 .3-.5 1.1-1 1.8-2.1 2.5-6 8.8-6 9.7 0 1.7 2.6 1.1 4.6-1.1 2.3-2.5 6.7-4.9 10.2-5.5 1.5-.3 3-1.1 3.4-1.7.4-.7.8-.8.8-.3s.9.1 2-.9 2-1.5 2-1c0 .4.7.2 1.5-.5 2.4-2 11.3-5.9 11.9-5.2.3.3.6 0 .6-.6 0-1.4 5.7-4.5 6.9-3.7.5.2 1.1-.2 1.5-1 .3-.8 1.2-1.5 2.1-1.5.8 0 1.5-.5 1.5-1.2 0-.6.3-.8.6-.5.4.3 1.8-.3 3.2-1.3 1.3-1.1 2.9-2 3.4-2s2.9-1.4 5.3-3c2.4-1.7 4.8-3 5.3-3s1.7-.9 2.7-2c1-1.1 2.3-2 3-2 .7 0 4-1.8 7.4-4 3.4-2.2 6.4-4 6.7-4 .3 0 3.2-1.8 6.4-4s6.4-4 6.9-4c.6 0 1.1-.4 1.1-.9 0-.4 3.9-3.2 8.6-6.2 4.7-3 9.2-6 10-6.7.8-.7 1.4-1 1.4-.6s.9-.1 2-1.2c2.3-2.3 3.5-3.3 8-6.4 1.9-1.3 3.7-2.7 4-3 .3-.4 2.8-2.1 5.5-4 2.8-1.9 5.2-3.6 5.5-4 .3-.3 2.1-1.7 4-3s5.1-3.7 7.1-5.4c2-1.7 5.5-4.7 7.9-6.5 2.3-1.9 4.8-4.1 5.6-4.8.7-.7 1.5-1.3 1.9-1.3.4 0 1.2-.6 1.9-1.3.8-.7 3.3-2.9 5.6-4.8 2.4-1.8 6.7-5.7 9.8-8.4 3-2.8 6.6-5.8 8.1-6.7 1.4-1 2.2-1.8 1.8-1.8-.5 0-.2-.7.7-1.5.8-.8 1.7-1.5 2-1.5.3 0 2.2-1.7 4.3-3.8 2.1-2 5.3-5 7.1-6.5 1.9-1.5 3-2.7 2.5-2.7-.4 0-.2-.4.4-.8 1.2-.8 20.3-19.2 19.9-19.2-.1 0 3.9-4.2 8.9-9.3 8.1-8.4 11.6-12.3 23.6-26.1 1.9-2.1 5.1-5.7 7.2-8 2-2.2 3.7-4.4 3.7-4.7 0-.3 1-1.7 2.3-3.1 1.2-1.4 3.6-4.2 5.2-6.2 1.7-2.1 3.6-4.4 4.3-5.1.6-.8 1.2-1.6 1.2-1.9 0-.3.8-1.4 1.8-2.4 3.2-3.4 6.2-7.2 5.6-7.2-.3 0 .1-.7.8-1.5 2.6-2.8 10.4-13.5 13.2-18 1.1-1.7 2.8-3.8 3.9-4.7 1.1-1 1.6-1.8 1.1-1.8s-.4-.4.2-.8c1.4-1 11.4-16 11.4-17.2 0-.6.4-1 .8-1s2.3-2.6 4.2-5.8c1.9-3.1 3.9-6 4.5-6.4.6-.5.6-.8 0-.8s-.6-.3.1-.8c.6-.4 2.1-2.7 3.5-5.2 1.3-2.4 3.9-6.7 5.7-9.4 1.7-2.8 3.2-5.6 3.2-6.3 0-.7.3-1.3.8-1.3.4 0 2.5-3.5 4.7-7.8 2.2-4.2 4.3-7.9 4.6-8.2.6-.5 1.3-1.9 7.1-13.5 1.7-3.3 3.6-6.3 4.2-6.7.6-.4.8-.8.4-.8s1.4-4.1 3.9-9.2c2.6-5.1 4.6-9.8 4.6-10.5 0-.7.4-1.3.8-1.3s1.1-1 1.4-2.3c.4-1.2 2.2-5.4 4.1-9.4 1.9-3.9 3.4-7.4 3.4-7.7 0-.3 1.4-3.6 3.1-7.3 1.7-3.8 4.5-10.4 6.1-14.8 1.7-4.4 3.9-10.3 5-13 2.1-5.4 5.4-15.1 5.9-17.5.2-.8.7-1.7 1-2 .4-.4 3.7-9.9 4.4-13 .1-.3.4-1.2.7-2 .3-.8 1.6-4.9 2.8-9 1.2-4.1 3-10.2 4-13.5 2.4-8 4.2-14.6 4.6-17 .2-1.1 1.5-6.3 2.8-11.5 2.6-9.8 5.9-24.6 5.9-26.8 0-.6.3-1.2.6-1.2s.7-1 .7-2.3c.1-1.2.4-3.6.8-5.2.3-1.7.8-4.4 1.1-6 .3-1.7.7-4.1 1-5.5.3-1.4.7-3.9 1-5.5.3-1.7.8-4.1 1-5.5.3-1.4.7-4.3 1-6.5.3-2.2.7-5 1-6.3.2-1.3.7-5.1 1-8.5.3-3.4.8-6.9 1-7.7.3-.8.7-4 1-7 .3-3 .7-7.5 1-10 1.3-11.8 2.1-23 3.1-42.5 1.3-26.4.1-80.9-2-97-.5-3.1-1.3-11.2-2.1-20.5-.4-4.9-1-10.3-2-19.5-.4-3.8-1.9-12.7-2.9-17.1-.5-2.2-1.2-6.6-2.2-13.2-.3-2-.7-4.4-.9-5.2-.3-.8-.7-3.5-1-6-.3-2.5-1.2-7.2-2-10.5-.9-3.3-1.7-6.9-1.9-8-.2-1.1-1.1-4.9-2-8.5-.9-3.6-2.9-12.2-4.6-19.1-1.6-6.9-3.9-15.1-4.9-18.2-1.1-3.1-1.8-5.7-1.6-5.7.2 0-.6-2.4-1.6-5.3-1.1-2.8-2.2-6.1-2.4-7.2-.3-1.2-1.3-4.6-2.4-7.8-1.1-3.1-1.7-5.7-1.4-5.7.3 0 .1-.6-.4-1.3-.6-.6-1.3-2.4-1.6-3.8-.4-1.4-1.4-4.3-2.3-6.5-1-2.1-1.9-4.6-2-5.5-.2-.9-1.3-3.8-2.5-6.5-1.1-2.7-2.2-5.6-2.4-6.4-.2-.8-1.1-3.3-2.1-5.5s-1.9-4.5-2-5c-.1-.6-1.4-3.8-2.8-7.2-1.4-3.5-2.6-6.9-2.6-7.7 0-.7-.6-1.9-1.4-2.5-.8-.7-1.8-2.6-2.1-4.2-.4-1.6-1-2.9-1.4-2.9-.4 0-.8-.6-.8-1.3 0-.6-1.8-4.8-3.9-9.2-2.1-4.4-3.7-8.3-3.6-8.8.1-.4-.2-.7-.7-.7-.5 0-1.2-1.2-1.5-2.6-.4-1.5-2.3-5.9-4.3-9.8-2-3.9-4.1-8.1-4.7-9.3-.6-1.3-1.5-2.3-1.9-2.3-.5 0-.5-.5-.2-1 .3-.6.1-1-.4-1-.6 0-1.1-.7-1.1-1.6 0-.9-.8-2.8-1.9-4.2-1-1.5-3.8-6.5-6.2-11.2-2.4-4.7-4.8-8.8-5.4-9.2-.7-.5-.7-.8 0-.8s.7-.3 0-.8c-.5-.4-4.5-7.7-8.9-16.2-9.2-18.1-14.4-27.8-18.6-35-1.6-2.8-3-5.3-3-5.5 0-.3-2-3.9-4.5-8.1-2.5-4.1-4.5-7.8-4.5-8 0-.3-1.5-2.9-3.4-5.8-1.8-2.9-3.7-6.2-4-7.4-.4-1.2-1.1-2.2-1.6-2.2s-1.2-1-1.6-2.2c-.3-1.2-2.3-4.7-4.3-7.7-4.4-6.8-5.7-8.9-7.2-11.9-.7-1.2-1.6-2.2-2.1-2.2s-.6-.5-.3-1c.3-.6.2-1-.3-1s-1.4-1.1-2-2.5c-.7-1.4-1.7-3.1-2.2-3.8-.6-.7-4.4-6.4-8.5-12.7-9.3-14.4-17.6-26.8-19.2-28.5-.7-.8-1.3-1.9-1.3-2.5 0-.6-.6-1.3-1.4-1.6-.8-.3-1.7-1.5-2-2.7-.3-1.3-1.3-3.2-2.3-4.3-1-1.1-2.2-2.7-2.8-3.6-5.3-8.3-24.6-36.2-25.9-37.3-.6-.6-1.2-1.7-1.4-2.5-.2-.8-1-1.9-1.8-2.3-.8-.4-1.4-1.2-1.4-1.8 0-.5-1.8-3.4-4-6.3s-4-5.6-4-5.9c0-.4-.7-1.5-1.5-2.4-1.2-1.5-11.4-15.9-16.7-23.7-.7-1-2-2.8-2.9-4-.9-1.1-4.5-6.4-8-11.6-3.5-5.2-6.8-9.9-7.2-10.5-.5-.5-3.5-4.8-6.7-9.5s-6.3-9-6.8-9.6c-.5-.5-1.4-2-2.1-3.1-.6-1.2-1.7-2.8-2.3-3.5a34 34 0 0 1-2.3-3c-1-1.6-11.1-16.2-19.3-27.8-2.1-3-5.9-8.7-8.5-12.5-2.6-3.9-5.4-7.9-6.3-9-.8-1.1-2.3-3.2-3.2-4.8-.9-1.5-2-2.7-2.4-2.7-.4 0-.8-.4-.8-1 0-.8-11.5-18-14-20.8-.6-.6-.7-1.2-.3-1.2.4 0 .3-.4-.3-.8-1.1-.7-12-16.4-26.2-37.7-3.6-5.5-7.4-10.9-8.4-11.9-1-1.1-1.8-2.5-1.8-3.2 0-.7-.3-1.4-.7-1.6-1.1-.4-9.3-12.7-9.3-13.8 0-.5-.4-1-.9-1.2-.5-.2-1.7-1.7-2.7-3.4-1.1-1.7-5.2-7.9-9.1-13.8-4-5.8-7.3-11-7.3-11.5s-.3-1.1-.8-1.3c-.4-.2-2.7-3.5-5.2-7.3-2.5-3.9-5-7.6-5.7-8.3-.7-.7-1.3-1.7-1.3-2.1 0-.4-1.1-2.1-2.5-3.7s-2.5-3.4-2.5-4.1c0-.6-.3-1.3-.8-1.5-.4-.2-2.3-2.8-4.2-5.8-1.9-3-4-6.1-4.7-6.8-.6-.6-1.5-2.1-1.8-3.2-.3-1.1-1.1-2-1.6-2s-.9-.6-.9-1.3c0-.7-.9-2.2-1.9-3.4-1-1.1-2.6-3.3-3.4-4.9-1.5-2.8-13.8-21.8-15.4-23.9-.4-.6-2.6-3.9-4.7-7.5-2.2-3.6-4.3-6.7-4.6-7-.4-.3-1.5-2.1-2.5-4s-2.1-3.7-2.4-4c-.7-.5-12.1-18.5-15.5-24.3-1-1.8-2.2-3.4-2.7-3.5-.5-.2-.9-.8-.9-1.4 0-.6-1.6-3.6-3.6-6.7s-4.8-7.4-6.2-9.6c-1.4-2.2-3.3-5.1-4.2-6.5-.9-1.4-2.7-4.5-4.1-7-1.3-2.5-3.2-5.4-4.1-6.4-1-1.1-2.1-2.9-2.4-4-.4-1.2-.9-2.3-1.3-2.6-.9-.7-5.4-7.7-9.2-14.4-3.9-6.7-3.9-6.6-15.3-25.1-4.7-7.7-9.8-16.3-11.2-19-1.5-2.8-2.9-5.2-3.3-5.5-.3-.3-1.7-2.5-3-5s-2.9-5.2-3.5-6c-.6-.8-1.6-2.4-2.3-3.6-.6-1.2-7.4-12.9-15-26-7.7-13.1-16.3-28.2-19.3-33.4-2.9-5.2-6.1-10.7-7.1-12.2-1.1-1.5-1.9-3.4-1.9-4.2 0-.8-.4-1.7-.9-2-.8-.5-11-18.3-15.2-26.6-1.3-2.5-2.5-4.7-2.8-5-.4-.3-1.4-2.1-2.3-4-.9-1.9-3.6-6.9-5.8-11-8.6-15.7-12-21.9-18.1-33.5-3.4-6.6-9.8-18.8-14.1-27-8.7-16.5-42.1-83.7-48.8-98-2.3-5-6.6-14.1-9.6-20.3-3-6.2-5.4-11.5-5.4-11.7 0-.3-1.4-3.5-3.1-7.2-7.6-16.5-11.1-24.2-11.4-25.3 0-.3-.6-1.4-1.2-2.5-2.7-5-23.8-55.1-34.8-82.5-4.5-11.3-8.5-21.4-9-22.5-.4-1.1-1-2.8-1.2-3.8-.1-1-.9-3-1.6-4.5-.8-1.5-3.1-7.5-5.2-13.5-2.1-5.9-4.1-10.7-4.5-10.7-.4 0-1.1 1.2-1.4 2.7zm68.8 316.6c13.8 29.1 39.6 81.6 47.9 97.2.6 1.1 4.1 7.8 7.7 15 3.7 7.1 8.5 16.4 10.7 20.5 2.2 4.1 5.6 10.4 7.5 14 1.9 3.6 5.4 10.1 7.8 14.5 2.3 4.4 4.5 8.4 5 9 .4.5 2.9 5.3 5.5 10.5 2.7 5.2 5.4 10.2 6.1 11 .7.8 1.4 2.2 1.6 3 .2.8.5 1.7.9 2 .9.9 14.9 26.2 14.9 27 0 .5.6 1.5 1.3 2.2.6.7 2.2 3.1 3.4 5.3 1.1 2.2 3 5.6 4.1 7.5 1.9 3.2 7.3 12.8 12.5 22 1.1 1.9 2.7 4.6 3.7 6 .9 1.4 3 5 4.7 8 1.6 3 5.1 9 7.6 13.2 2.5 4.3 4.4 7.8 4.1 7.8-.3 0 .4 1 1.6 2.2 1.1 1.2 2 2.7 2 3.3 0 .6.7 2 1.5 3 1.8 2.3 12.5 20.4 12.5 21.1 0 .3.5 1 1 1.7 1.8 2 21 33.9 21 34.8 0 .4.6 1.4 1.4 2.1.7.8 2.1 2.9 3.1 4.8.9 1.8 2.1 3.8 2.6 4.4 1.7 2 9 14.1 9.6 15.8.3 1 .9 1.8 1.4 1.8.5 0 .9.5.9 1.1 0 .6 1 2.5 2.3 4.2 2.2 3.1 3.5 5.4 6.4 10.9.8 1.6 1.9 2.8 2.4 2.8s.9.5.9 1c0 .6 2.1 4.4 4.8 8.5 2.6 4.1 7 11.1 9.7 15.5 2.8 4.5 5.5 8.7 6 9.3.6.7 2.8 4.1 5 7.7 4.4 7.3 17 26.9 18.4 28.6.4.5 1.4 2.1 2.1 3.5 1.3 2.3 5.9 9.5 22.2 34.4 4.3 6.6 7.7 12.2 7.6 12.5-.1.3.9 1.7 2.2 3.1 1.4 1.4 4.8 6.3 7.5 10.8 2.8 4.5 5.5 8.8 6 9.4 2.2 2.4 7.5 10.8 7.5 11.8 0 .5.3.9.8.9.6 0 4.1 5.3 4.2 6.5 0 .3 1 1.6 2.1 2.9 1.2 1.3 2 2.7 1.9 3.1-.1.4.7 1.4 1.8 2.3 1 .9 2.1 2.4 2.5 3.2.8 1.8 3 5.3 3.7 6 .3.3 2 2.7 3.8 5.5 4.9 7.7 5.6 8.7 6.9 10 .7.7.9 1.5.6 1.9-.4.3-.2.6.4.6.6 0 1.6 1.3 2.3 3 .7 1.6 1.5 3 1.9 3 .7 0 4.2 5.5 4.1 6.5 0 .3 1 1.6 2.1 2.9 1.2 1.3 2 2.7 1.9 3.1-.1.4.7 1.4 1.7 2.3 1 .9 4.3 5.5 7.3 10.2 3 4.7 6.1 9.1 6.7 9.8.7.7 1.3 1.7 1.3 2.2 0 .5.6 1.5 1.3 2.2 1.4 1.5 5.1 7.1 5.1 7.8 0 .3.8 1.4 1.9 2.5 1 1.1 2.6 3.3 3.4 5 .9 1.6 1.9 3.2 2.2 3.5 1 .8 7.1 9.8 7.1 10.5 0 .3.9 1.6 2.1 2.8 1.1 1.2 2.8 3.5 3.6 5.2.9 1.6 1.9 3.2 2.2 3.5.3.3 2 2.5 3.6 5 1.7 2.5 3.6 5.1 4.3 5.8.6.7 1.2 1.7 1.2 2.1 0 .4.9 1.9 2 3.2 1.1 1.3 2.3 2.8 2.8 3.4.4.5 2 3.2 3.6 5.9 1.5 2.6 3.7 5.7 4.7 6.7s1.9 2.3 1.9 2.7c0 .5 1.1 2.2 2.5 3.8 1.4 1.6 2.5 3.4 2.5 4.1 0 .6.3 1.3.8 1.5.4.2 3 3.7 5.7 7.8 2.8 4.1 5.6 8.1 6.3 8.8.6.7 1.2 1.7 1.2 2.2 0 .5.6 1.5 1.3 2.2.6.7 3.6 4.9 6.6 9.3 3 4.4 7.8 11.5 10.8 15.7 2.9 4.2 5.3 8 5.3 8.4 0 .3 1.4 2.3 3 4.4 1.7 2.1 3 4.2 3 4.6 0 .8 1.5 2.8 6 8.1.5.7 1 1.4 1 1.7 0 .3 4.9 7.9 10.8 16.8 6 9 13.2 19.9 16 24.3 2.9 4.4 5.9 8.9 6.7 10 .8 1 1.5 2.4 1.5 3.1 0 .6.7 1.7 1.5 2.4.9.7 2.3 2.8 3.1 4.6.9 1.9 2 3.4 2.5 3.4s.9.5.9 1c0 .6 2.5 5 5.5 9.9s5.5 9.4 5.5 9.9c0 .6.3 1.2.8 1.4.8.3 7.5 11.4 11.1 18.2 1.1 2.2 1.7 4.4 1.4 4.9-.3.6-.2.7.4.4.5-.3 3.1 3.6 5.8 8.6 2.6 5.1 5.9 10.9 7.2 12.9 1.3 2.1 2 3.8 1.6 3.8-.5 0-.3.4.2.8 1.5 1.1 9.7 17.2 8.8 17.2-.4 0-.3.4.3.8 1.5.9 5.7 9.2 4.7 9.2-.5 0-.3.4.3.8.9.6 8.4 14.8 16.8 31.7 1.1 2.2 2.8 5.1 3.8 6.4 1 1.3 1.5 2.7 1.2 3.2-.3.5 0 .9.7.9s.9.3.6.6c-.3.4.3 1.8 1.3 3.2 1.1 1.3 2 3.3 2 4.3 0 1.1.5 1.9 1.1 1.9.5 0 .7.4.4 1-.3.5-.3 1 .2 1 .8 0 2.1 2.5 4.1 8 1 2.5 2.6 6.3 10.9 24.5 4.2 9.3 8.9 21 9.8 24.5.2.8 1.5 4.3 2.9 7.8 1.3 3.4 2.5 6.6 2.5 7 0 .4.7 2.3 1.5 4.2 4.2 10.3 5.6 14 7.1 19.5 1.8 6.9 2.3 8.8 2.9 11.2.3 1 1.7 5.6 3.1 10.3 1.4 4.7 2.8 9.2 3 10 .2.8 1.2 4.7 2.3 8.7 1.1 3.9 1.8 7.4 1.4 7.7-.3.3-.1.6.4.6s1.1 1.2 1.2 2.7c.1 1.6.7 5 1.3 7.7.7 2.8 1.3 5.9 1.4 7 .1 1.2.3 2.1.4 2.1.4 0 4.1 17.1 5.1 23.5.6 3.6 1.3 8.1 1.6 10 .3 1.9.7 4.8 1 6.5.2 1.6 1 7 1.8 12 2.6 16.3 2.9 19.5 5.4 52.4.8 11.2.8 85.3 0 95.6-.4 3.8-.9 11-1.3 16-.3 4.9-1 11-1.5 13.5s-.8 5.2-.8 6c.1 2.4-1.1 11.8-2.8 21.6-.8 5-1.7 10.4-1.8 12-.2 1.6-.4 2.9-.5 2.9-.1 0-.4 1.8-.7 4-.7 5.3-.9 6.5-1.7 9.5-.4 1.4-.9 3.8-1.3 5.5-.3 1.6-1.1 6.1-1.9 10-1.4 7.2-8.7 36.4-12.5 49.5-1.2 4.1-2.5 8.8-3 10.5-1 3.8-5.5 16.7-9.1 26.7-1.6 4.3-2.9 8.4-2.9 9.3 0 .8-.4 1.5-.8 1.5s-.8.9-.9 2.1c-.1 1.1-1.1 4-2.3 6.4-1.1 2.3-2.3 5.3-2.5 6.4-.2 1.2-1.5 4.5-2.8 7.4-3.5 7.4-7.7 17.3-7.7 18 0 .4-2 4.8-4.5 9.8-2.5 5.1-4.5 9.8-4.5 10.5 0 .8-.4 1.4-.8 1.4-.5 0-1.4 1.8-2.1 4-.6 2.1-1.8 4.6-2.7 5.4-.8.8-1.5 1.9-1.6 2.3-.4 2.6-1.1 4.3-1.8 4.3-.5 0-1.1 1.4-1.5 3-.4 1.7-1.1 3-1.6 3-.6 0-.8.4-.5.9.3.5-.3 1.9-1.3 3.2-1 1.3-3.5 5.5-5.5 9.4-4.9 9.5-9.7 17.9-10.5 18.5-.3.3-.7 1-.8 1.7-.1.6-1.6 3.1-3.3 5.6-1.6 2.5-3 5-3 5.6 0 .6-.4 1.1-.9 1.1s-1.4 1.3-2.1 3c-.7 1.6-2.3 4.2-3.6 5.7-1.3 1.6-2.4 3.4-2.4 4 0 .7-.5 1.3-1.1 1.3-.5 0-.7.4-.4 1 .3.5.2 1-.4 1-.5 0-1.3.9-1.6 2-.3 1.1-1.2 2.6-1.8 3.2-.7.7-2.5 3.3-4.2 5.8-1.6 2.5-3.6 5.1-4.2 5.8-.7.7-1.3 1.7-1.3 2.2 0 .5-.6 1.5-1.3 2.2-.7.7-3.3 4.2-5.7 7.8-2.4 3.6-5.4 7.5-6.7 8.8-1.3 1.3-2.3 2.7-2.3 3.1 0 .4-.9 1.9-2 3.2-1.1 1.3-2.9 3.5-4 4.9-1.1 1.4-2.9 3.6-4 4.9-1.1 1.3-2.2 3.2-2.5 4.2-.4 1.1-1.4 1.9-2.2 1.9-.9 0-1.3.3-1 .6.4.4-.3 1.5-1.5 2.5-1.1 1.1-1.7 1.9-1.3 1.9.4 0-.6 1.3-2.3 3-1.8 1.6-2.9 3-2.6 3 .3 0-.7 1.2-2.3 2.7-1.5 1.6-4.8 5.3-7.3 8.3-4.8 5.9-6.6 7.9-16 17.8-3.3 3.5-6 6.7-6 7.3 0 .5-.8.9-1.7.9-.9 0-1.4.3-1.1.6.7.6-3.9 5.4-5.2 5.4-.6 0-1 .4-1 .8 0 1.2-7.9 9.2-9.1 9.2-.5 0-.9.4-.9.9s-2.3 3-5.2 5.7c-2.8 2.7-8 7.7-11.5 11.1-3.5 3.5-6.6 6.3-6.9 6.3-.3 0-1.5 1-2.7 2.3-1.3 1.2-4.2 3.8-6.6 5.7-2.4 1.9-5.8 5-7.6 6.7-1.8 1.8-3.6 3.3-3.9 3.3-.3 0-2.1 1.5-4 3.3-4.7 4.5-7.5 6.7-8.4 6.7-.4 0-1.4.9-2.2 2-.8 1.1-2 2-2.7 2-.7 0-1.3.3-1.3.7 0 .5-1.7 1.9-3.8 3.3-2 1.4-4.4 3.2-5.2 4-.8.9-3.1 2.7-5 4-1.9 1.3-3.7 2.7-4 3-.3.4-2.7 2.2-5.5 4-2.7 1.9-5.9 4.2-6.9 5.2-1.1 1-2.4 1.8-2.8 1.8-.5 0-1.8.9-3 2s-2.8 2-3.7 2c-.8 0-1.1.3-.8.7.6.6-5.4 5.3-6.8 5.3-.3 0-1.5.8-2.6 1.9-1.1 1-4 2.9-6.4 4.1-2.5 1.3-4.5 2.7-4.5 3.2 0 .4-.6.8-1.3.8-.7 0-2.3.9-3.5 2-1.2 1.1-2.8 2-3.6 2-.7 0-1.7.7-2 1.6-.4.9-.9 1.4-1.2 1.1-.4-.3-1.3 0-2.1.8-1.8 1.8-6.3 2-6.3.2 0-.6 1.4-2.3 3.1-3.6 1.7-1.4 5.3-4.6 8-7.3 2.7-2.6 5.1-4.8 5.3-4.8.9 0 28.6-28.3 28.6-29.1 0-.5.8-.9 1.7-.9.9 0 1.4-.3 1-.6-.3-.3 2.2-3.4 5.6-6.9 8.1-8.4 12.7-13.5 12.2-13.5-.3 0 1-1.5 2.8-3.4 2.9-3 7.6-8.4 13.6-15.6 2.3-2.8 2.3-2.8 7.1-9 1.9-2.5 4.2-5.4 5.2-6.5 3.9-4.4 5.8-6.8 5.8-7.4 0-.3 1.1-1.9 2.5-3.4s2.3-2.7 1.9-2.7c-.4 0 .7-1.3 2.4-2.9 1.6-1.6 2.8-3.2 2.4-3.5-.3-.3 0-.6.6-.6.7 0 1.2-.7 1.2-1.5 0-.9.7-1.8 1.5-2.1.8-.4 1.5-1 1.5-1.5s1.2-2.7 2.8-4.8c1.5-2.1 3.4-4.9 4.2-6.1.8-1.2 2.1-2.8 2.8-3.6.6-.7 1.2-1.6 1.2-2.1 0-.4 1-2 2.3-3.5 1.2-1.5 3.6-5 5.2-7.7 1.7-2.8 3.4-5.1 3.8-5.1.5 0 .5-.5.2-1-.3-.6-.2-1 .3-1s1.2-.8 1.6-1.8c.6-1.9 2.5-5 4.3-6.9.6-.7 1.5-2.2 1.8-3.3.3-1.1 1.1-2 1.6-2 .6 0 .7-.5.4-1-.3-.6-.3-1 .2-1 .4 0 2.1-2.6 3.8-5.8 1.6-3.1 3.2-5.9 3.5-6.2.4-.3 2-3 3.6-6s3.3-5.8 3.7-6.1c.5-.3.9-1.2 1-2 .2-.8 1.2-3 2.4-4.9 1.1-1.9 3.7-6.6 5.6-10.3 1.9-3.7 4.1-7.4 4.7-8.2.7-.8 1-1.5.6-1.5-.3 0 .5-1.8 1.9-4s2.3-4 2.1-4c-.3 0 1.2-3.5 3.3-7.7 6.8-14 10.2-21.2 10.2-22 .1-.5 1-2.5 2-4.5 1-2.1 1.9-4.4 1.9-5.3 0-.8.4-1.5 1-1.5.5 0 .9-.3.8-.8-.1-.4.4-1.9 1-3.5 3.1-7.1 3.5-8.3 3.7-9.3.2-.6 1-2.7 1.8-4.5.9-1.9 2.2-5.4 3.1-7.9.8-2.5 2.4-7 3.6-10 2.6-6.9 12.1-34.9 12.5-37.3.2-.9.7-2.2 1-2.7.5-.9 4.1-13.1 6-21 .2-.8 1.8-6.9 3.5-13.5 1.6-6.6 3.2-13.4 3.5-15 .3-1.7 1-4.1 1.5-5.5.4-1.4 1.8-7.5 2.9-13.5 1-6.1 2.2-12.4 2.5-14 .4-1.7.9-4.4 1.1-6 .3-1.7 1-5 1.5-7.5s1.2-7 1.5-10c.3-3 .8-6.2 1-7 1.3-4.7 3.5-22.7 4.9-40.5.4-4.4.9-10.7 1.1-14 1-15.9 1.7-27.5 2.1-32 .5-7.7.6-52.7 0-55.3-.3-1.3-.8-8.3-1.1-15.5-.6-13.8-1.9-30.4-3.5-42.2-.5-3.9-1.2-9.3-1.5-12-.3-2.8-1.2-9.5-2-15s-1.6-11.6-1.9-13.5c-.2-1.9-.7-4.6-1-6-.3-1.4-.8-3.9-1.1-5.5-.3-1.7-.7-4.1-.9-5.5-1.9-11.3-8.7-40.4-12.6-54-1.2-4.1-3-10.8-4-14.8-3.3-12.9-6.1-22.6-7.2-24.6-1.7-3.2-4-10-5.1-15.1-.2-.6-.5-1.5-.9-2-.8-1.4-3.2-9.8-3-10.8.1-.4-.2-.7-.6-.7-.5 0-.9-.6-.9-1.3-.1-1.2-2-6.1-6.8-17.7-1.5-3.6-3.5-8.5-4.5-11s-4.9-12.2-8.7-21.5c-8.3-20.1-8.5-20.7-8.9-22-.1-.6-1.4-3.7-2.8-7s-2.6-6.8-2.6-7.8c0-.9-.5-1.7-1-1.7-.6 0-.9-.3-.8-.8.1-.4-.5-2.1-1.4-3.7-.9-1.7-1.8-3.9-2-5-.1-1.1-.6-2.2-.9-2.5-.6-.5-7.9-16.7-8.3-18.5-.1-.6-.7-2-1.4-3.2-.7-1.2-1.2-2.6-1.2-3.1 0-.6-3.6-8.6-8.1-17.8-4.4-9.3-8.1-17.4-8.2-17.9-.1-.6-.5-1.2-.8-1.5-.3-.3-4.6-8.4-9.4-18-4.9-9.6-9.5-18.3-10.3-19.3-.8-.9-1.2-1.7-.8-1.7.4 0 0-.7-.8-1.6-.9-.8-1.4-2-1.1-2.5.4-.5.1-.9-.4-.9-.6 0-1.1-.9-1.1-2s-.4-2-.8-2c-.5 0-2.2-2.8-3.8-6.3-1.6-3.4-3.2-6.4-3.5-6.7-1-.8-4.3-7.5-4.1-8.3.1-.4-.2-.7-.7-.7-1 0-2.7-3.9-2.3-5.3.1-.4-.2-.7-.6-.7-.5 0-1.7-1.8-2.7-4-1-2.2-2.2-4-2.7-4-.4 0-.8-.7-.8-1.5 0-.9-.7-2.6-1.4-3.8-2.3-3.4-8.4-14.7-10.8-19.7-1.1-2.4-2.7-5-3.4-5.8-.8-.7-1.4-1.7-1.4-2.2 0-.5-2.3-4.8-5.1-9.7-2.8-4.8-5.2-9.3-5.3-9.8-.1-.6-1.1-2.4-2.2-4-1.2-1.7-2.5-4-2.8-5.2-.4-1.3-1.3-2.9-2.1-3.6-.7-.7-2.5-3.8-4-6.8s-4.5-8.4-6.6-12c-2.1-3.6-3.9-7.2-4.1-8-.2-.8-.5-1.6-.8-1.9-.9-.8-6.1-9.9-6.1-10.7 0-.5-.6-1.5-1.3-2.3-.8-.8-3.1-4.9-5.2-9-2.2-4.1-4.2-7.7-4.5-8-.4-.3-2-3.2-3.8-6.5-1.7-3.3-4.1-7.8-5.4-10-1.3-2.2-4.1-7.4-6.3-11.5-2.1-4.1-4.2-7.7-4.5-8-.3-.3-2.2-3.9-4.4-8-2.1-4.1-4.8-9.1-6-11-1.2-1.9-4.1-7.3-6.5-12-2.4-4.7-4.7-8.7-5-9-.3-.3-1.7-3-3.2-6-1.5-3-3.8-7.3-5.1-9.5-3.9-6.8-9.3-16.7-12.9-23.5-1.9-3.6-4.8-9-6.5-12-1.7-3-5.1-9.3-7.5-14-2.5-4.7-5.3-9.8-6.3-11.3-.9-1.5-1.3-2.7-.9-2.7.5 0 .4-.4-.2-.8-.6-.4-3.1-4.5-5.5-9.2-2.3-4.7-4.7-9.1-5.3-9.9-.6-.7-1.1-1.9-1.2-2.7-.1-.7-1.1-2.6-2.2-4.1-1.1-1.5-2.9-4.8-4.1-7.3-1.1-2.5-3.2-6.5-4.6-9-1.4-2.5-2.5-5.3-2.5-6.2 0-1-.5-1.8-1-1.8-.6 0-2.5-3-4.3-6.8-1.7-3.7-3.5-6.9-3.8-7.2-.4-.3-2.2-3.7-4.1-7.5-1.9-3.9-7.2-14.2-11.8-23-13.7-26.6-18-35.2-18-36.3 0-.6-.4-1.2-.9-1.4-.9-.3-33.6-65.3-35.9-71.3-.7-1.7-1.6-3.7-2.2-4.5-.9-1.4-15.1-30.7-23-47.5-2.1-4.4-5.9-12.5-8.5-18-2.6-5.5-6-12.7-7.5-16-1.5-3.3-5.7-12.3-9.3-20-9.2-19.9-25.7-56.4-25.7-56.9 0-.2-1.6-3.9-3.6-8.3-4-8.7-5.2-11.5-11.5-25.8-2.4-5.5-4.4-10.2-4.4-10.5-.1-.3-.8-2.1-1.7-4-2-4.2-14.1-33.3-17-40.4-1.1-2.8-2.6-6.5-3.3-8.1-3.7-8.2-7.5-17.4-7.5-18.2-.1-.4-.9-2.6-2-4.8-1.1-2.2-1.9-4.4-2-4.8 0-.5-.7-2.3-1.5-4-1.4-3.3-12.4-31-17.7-45.2-1.7-4.4-4.5-11.8-6.4-16.5-1.8-4.7-4.9-13-6.9-18.5s-4-10.9-4.5-12c-1-2.3-6-16.4-6-17.1 0-.2.6-.4 1.3-.4.6 0 2.5 2.8 4.1 6.3z"/><path d="M952.9 480.7c-1.3 2.1-2.8 4.1-3.3 4.5-.6.4-.7.8-.3.8.5 0-.1 1.3-1.2 2.9-1.2 1.6-2.1 3.4-2.1 4 0 .6-.3 1.1-.7 1.1-.5 0-1.3 1-1.9 2.3-3.4 6.7-4.6 8.7-5.5 8.7-.5 0-.8.3-.7.7.3 1.3-1.3 5.3-2.1 5.3-.4 0-1.6 1.8-2.6 4s-2.2 4-2.7 4-.6.4-.3 1c.3.5.2 1-.4 1-.5 0-1.5 1.6-2.2 3.4-.7 1.9-1.6 3.3-2.1 3-.4-.3-.8.4-.8 1.4 0 1.1-.7 2.2-1.5 2.6-.8.3-1.4.9-1.3 1.4.2.5-1.6 3.9-3.9 7.5-2.4 3.7-4.3 7.1-4.3 7.7 0 .5-.5 1-1.1 1-.5 0-.8.4-.5.9.3.5-.1 1.1-.9 1.5-.8.3-1.5 1.2-1.5 2s-.6 2.1-1.3 2.8c-.7.7-2.3 3.4-3.7 6-1.4 2.7-2.8 4.8-3.2 4.8-.5 0-.8.7-.8 1.5 0 .7-.6 1.8-1.4 2.2-.8.4-1.6 1.2-1.7 1.8-.1.5-1.2 2.6-2.3 4.5-1.2 1.9-2 3.8-1.8 4.2.1.5-.3.8-.9.8-.5 0-1.6 1.5-2.4 3.2-.7 1.8-2.3 4.3-3.4 5.5-1.2 1.2-2.1 2.9-2.1 3.8 0 .8-.4 1.5-1 1.5-.5 0-1 .9-1 2.1 0 1.1-.4 1.8-.8 1.5-.5-.3-1.9 1.5-3.1 4-1.3 2.4-3.3 5.7-4.7 7.3-1.3 1.5-2.1 3.1-1.7 3.5.3.3.2.6-.4.6-.6 0-1.6 1.3-2.3 3-.7 1.6-1.6 3-2.1 3s-.9.5-.9 1.2c0 .6-1 2.5-2.3 4.2-1.2 1.7-2.9 4.3-3.6 5.8-.8 1.6-1.8 2.8-2.3 2.8-.4 0-.8.5-.8 1 0 .6-2.2 4.4-5 8.5-2.7 4.1-4.7 7.5-4.4 7.5.3 0 0 .6-.6 1.2-.6.7-4.5 6.5-8.5 12.8-4.1 6.3-7.8 11.9-8.2 12.5-.5.5-2.4 3.5-4.3 6.5s-3.8 5.7-4.2 5.8c-.5.2-.6.8-.2 1.3.3.5 0 .9-.6.9s-.9.4-.6.9c.3.5-.1 1.1-.9 1.5-.8.3-1.5 1.2-1.5 2.1 0 .8-.5 1.5-1 1.5-.6 0-1.5 1.1-2 2.5s-1.5 3.1-2 3.8c-.6.6-3.4 4.8-6.3 9.2-2.8 4.4-5.4 8.2-5.8 8.5-.4.3-.9 1.2-1.1 2-.2.8-1.3 2.5-2.5 3.8-1.1 1.4-2.7 3.6-3.5 5.1-.7 1.4-1.5 2.8-1.8 3.1-2.5 2.4-4.3 5.2-3 4.6.8-.4.6 0-.5.9s-2 2-2 2.6c0 .5-.7 1.4-1.5 1.9s-1.1 1-.7 1c.4 0-.1 1-1.3 2.2-1.1 1.2-2 2.8-2 3.5 0 .7-.4 1.3-1 1.3-.5 0-1 .7-1 1.5 0 .9-.7 1.8-1.5 2.1-.8.4-1.5 1.2-1.5 2 0 .7-.8 1.7-1.7 2.3-1 .5-1.5 1.2-1.1 1.6.6.6-.8 2.7-3.9 6-.7.8-1.3 1.8-1.3 2.2 0 .5-.9 1.9-2 3.1-1.2 1.2-1.8 2.2-1.5 2.2.3 0-.5 1.2-1.9 2.6-1.3 1.5-3.2 4.4-4.3 6.5-1 2.1-2.4 3.9-3.1 3.9-.7 0-1.1.4-.8.9.5.7-.2 1.8-4.3 6.7-.5.6-1.6 2.5-2.5 4.2-.9 1.8-2 3.2-2.5 3.2s-1.2 1.1-1.5 2.5c-.4 1.4-1.1 2.5-1.6 2.5-.6 0-1 .6-1 1.3 0 .7-.9 2.3-2 3.5-1.2 1.2-1.7 2.2-1.3 2.2.4 0 0 .5-.9 1.1-1 .5-1.8 1.7-1.8 2.4 0 .8-.4 1.5-.8 1.5-.5 0-1.5 1.2-2.3 2.7-.8 1.6-1.8 3.3-2.4 4-2.1 2.6-3.1 3.9-6 8.3-1.6 2.5-3.4 4.8-4 5.2-.5.4-.6.8-.2.8.4 0 .3.6-.3 1.2-3.6 4.3-10 13.5-10 14.5 0 .7-.4 1.3-.8 1.3-.5 0-1.5 1.2-2.3 2.7-.8 1.6-2.2 3.5-3.1 4.4-1 .9-1.5 1.9-1.1 2.3.3.3.1.6-.5.6s-1.3.8-1.7 1.9c-.3 1-1.3 2.8-2.3 3.9-.9 1.1-2.4 3-3.2 4.2-.8 1.2-2.1 2.8-2.7 3.6-.7.7-1.3 1.5-1.3 1.8 0 .4-1.2 2.4-2.7 4.5-1.6 2.1-3.5 4.9-4.3 6.1-.8 1.2-2.5 3.4-3.7 4.8-1.3 1.5-2.3 3.3-2.3 3.9 0 .7-.4 1.3-1 1.3-.5 0-1 .6-1 1.4 0 .8-.7 1.6-1.5 2-.8.3-1.5 1.2-1.5 2.1 0 .8-.3 1.5-.8 1.5-.4 0-1.6 1.6-2.6 3.5-1.1 1.9-2.4 3.5-2.9 3.5-.6 0-.8.3-.4.6.3.3.1 1.1-.4 1.8-4.7 5.6-5.7 7.1-5.3 7.8.3.4 0 .8-.5.8-.6 0-1.1.7-1.1 1.5s-.4 1.5-.8 1.5c-.9 0-9.3 11.5-10.4 14.2-.4 1-1.3 1.8-1.9 1.8-.7 0-.9.3-.6.7.4.4-.5 1.9-2 3.5-1.5 1.5-2.3 2.8-1.9 2.8.4 0 .2.6-.4 1.2-3.9 4.7-5 6.3-5.5 7.9-.4 1.1-1.1 1.9-1.6 1.9s-.9.7-.9 1.6c0 .8-.4 1.2-1 .9-.5-.3-1-.1-1 .4 0 2-.3 2.6-3.2 5.6-1.5 1.6-2.8 3.6-2.8 4.2 0 .7-.5 1.3-1.2 1.3-.6 0-.9.3-.5.6.3.3-.5 1.8-1.9 3.2-1.3 1.5-2.4 3.3-2.4 4.1 0 .8-.3 1.1-.7.8-.6-.6-2.1 1.4-3.9 5.3-.4.8-1 1.7-1.4 2-.4.3-2.6 3.4-5 7s-4.8 6.8-5.4 7.2c-.6.4-.7.8-.3.8.4 0 .3.6-.3 1.2-5.1 6.1-6.3 7.7-7.7 10.5-.8 1.8-2 3.3-2.5 3.3s-.7.4-.4.9c.3.5-.1 1.1-.9 1.5-.8.3-1.5 1.2-1.5 2 0 .7-.7 1.7-1.6 2-.8.3-1.2 1-.9 1.6.3.6-.1 1.3-.9 1.6-.9.3-1.4 1-1.1 1.4.3.4-.2 1.1-1.1 1.4-.8.3-1.3 1-.9 1.5.3.6-.3 1.4-1.2 2-1 .6-1.3 1.1-.8 1.1.6 0 .6.3-.1.8-1.6 1.1-10.5 14.2-9.7 14.2.4 0-.3.7-1.5 1.6-1.2.8-2.2 2.2-2.2 3 0 .8-.4 1.4-1 1.4-.5 0-1 .7-1 1.5s-.4 1.5-1 1.5c-.5 0-1 .7-1 1.5s-.4 1.5-.9 1.5-1.4 1.3-2.1 3c-.7 1.6-1.7 3-2.3 3-.6 0-.8.3-.4.6.3.3-.5 1.8-1.8 3.2-1.3 1.4-2.2 2.9-2 3.3.3.4-.2.9-1 1.3-.8.3-1.5 1-1.5 1.6 0 .6-.6 1.8-1.2 2.5-3.1 3.5-3.8 4.5-3.8 5.9 0 .7-.7 1.7-1.6 2-.9.4-1.4.9-1.1 1.2.3.4-.2 1.5-1.2 2.5-1 1.1-2.4 3.2-3.2 4.7-.8 1.5-2 3.1-2.6 3.5-.7.4-1.3 1.7-1.3 2.8 0 1.1-.4 1.8-.9 1.5-.4-.3-1.6 1.2-2.6 3.4s-2.2 4-2.7 4-.6.4-.3 1c.3.5.1 1-.5 1s-.9.4-.6.9c.3.5-.1 1.1-.9 1.5-.8.3-1.5 1.2-1.5 2.1 0 .8-.3 1.5-.8 1.5-.4 0-1.3 1.4-2 3-.8 1.7-1.9 3.6-2.5 4.3-1.4 1.5-3.4 4.8-5.6 9.2-.8 1.6-1.7 3.2-2.1 3.5-.4.3-2.4 3.9-4.6 8-2.1 4.1-4.2 7.6-4.6 7.8-.5.2-.8.9-.8 1.7 0 .7-.7 1.8-1.5 2.5s-1.5 2-1.5 3-.7 2.1-1.6 2.4c-.9.4-1.4.9-1.1 1.2.2.3-1.9 4.8-4.9 10-3 5.3-5.4 10-5.4 10.5s-.5.9-1 .9c-.6 0-.9.3-.8.7.3 1.1-3.4 8.7-4.6 9.5-.6.4-.7.8-.3.8.5 0-.1 1.3-1.2 2.9-1.2 1.6-2.1 3.6-2.1 4.5 0 .9-.3 1.6-.8 1.6-.8 0-5.7 10.1-5.4 11.2.1.5-.2.8-.8.8-.5 0-1.9 2.2-3.1 5-1.2 2.7-2.6 5-3.1 5s-.6.4-.3 1c.3.5.1 1-.6 1s-.9.3-.6.7c.4.3.3 1.1-.2 1.7-2 2.4-7.1 12.6-6.4 12.6.4 0 0 .5-1 1.1-.9.6-1.5 1.4-1.2 2 .4.5.3.9-.2.9-.4 0-1.7 2-2.8 4.5-1.1 2.5-2.3 4.5-2.7 4.5-.5 0-.7.3-.6.7.1.5-.5 2.2-1.5 3.9-.9 1.7-1.3 3.4-1 3.8.4.3.1.6-.5.6-.7 0-1.2.5-1.2 1 0 .6-1.5 4.3-3.4 8.3-5.8 12.2-10.7 22.9-10.9 24.1-.1.6-.8 1.7-1.5 2.4-.7.8-1 1.8-.7 2.3.4.5.1.9-.4.9-.6 0-1.1.7-1.1 1.5 0 .9-.9 3.4-2.1 5.6-1.1 2.3-1.6 3.8-1.1 3.5.5-.3 0 1.2-1 3.4-1.1 2.1-2.1 4.5-2.2 5.2-.3 1.4-2.3 6.3-3.7 9.1-.6 1-.7 2.2-.4 2.7.4.6.2 1-.3 1s-1.7 2.7-2.8 6c-1 3.3-2.2 6-2.5 6-.3 0-.6.6-.7 1.2-.1 1.9-.7 3.9-2 7.1-.7 1.5-1.1 3.1-1 3.5.1.4-.1 1.4-.5 2.2-.9 2.3-5.9 18.3-6.2 20-.2.8-.8 2.6-1.3 4s-1.1 2.9-1.2 3.5c-.1.5-.6 1.9-1 3.1-.5 1.1-1.1 3.6-1.5 5.5-.6 3.3-1.2 5.9-1.5 6.9-.1.3-.2.8-.1 1.2 0 .4-.4 1.9-.9 3.3s-1.2 3.8-1.5 5.3c-1.4 6.4-1.6 7.7-3.1 13-.8 3.2-1.8 7-2 8.7-.3 1.6-1 4.2-1.6 5.7-.5 1.5-.8 3.4-.5 4.2.3.8.3 1.7-.1 2-.3.4-.7 1.4-.9 2.4-.6 3-1.3 7.6-1.8 11.2-.6 4.7-1.3 9-2 12-.3 1.4-.8 4.1-1.1 6-.2 1.9-.8 4.8-1.1 6.5-.3 1.6-.7 3.9-.8 5-.2 1.1-.6 3.8-.9 6-.3 2.2-.8 6.7-1.1 10-.3 3.3-.8 8.5-1.1 11.5-.3 3-.7 7.7-1 10.5-.2 2.7-.7 6.6-.9 8.5-2.4 19-2.3 97.1 0 120.5.3 2.7.7 7.2 1 10 .2 2.7.6 7.5.9 10.5.3 3 1 9.1 1.7 13.5.6 4.4 1.3 9.3 1.4 11 .1 1.6.3 3 .5 3 .1 0 .3 1.4.5 3 .2 1.7.6 4.6 1 6.5.3 1.9.8 5.1 1 7 .2 1.9.4 3.5.5 3.5.2 0 .4.9.6 2 .5 3.2 1.3 7.6 2.4 13.5.5 3 1.3 6.8 1.6 8.5.3 1.6.9 4.3 1.4 6 .5 1.6 1.1 4.6 1.4 6.5.3 1.9 1.2 6 2 9.2.9 3.1 1.7 6.8 2 8.1.2 1.4.9 3.5 1.6 4.6.6 1.2.9 2.1.6 2.1-.3 0 0 1.5.5 3.2.6 1.8 1.2 4.4 1.4 5.8.2 1.4 1.3 5.3 2.4 8.7 1 3.4 1.6 6.4 1.3 6.7-.3.3-.1.6.5.6.5 0 1 .6 1 1.2 0 .7 1.3 5.3 2.9 10.3 1.5 4.9 2.8 9.2 2.9 9.5.2 1.4 5.8 17.6 6.4 18.5.3.5.6 1.4.7 2 .1.5 1.2 3.7 2.5 7s2.2 6.3 2.1 6.7c-.1.5.3.8.8.8s.9.3.8.7c-.3 1.1 2 7.7 5 14.3 1.4 3 2.7 6.1 2.8 6.9.1.8.6 1.7 1.1 2 .4.3 1 1.5 1.2 2.6.1 1.1.8 2.9 1.4 4 .6 1.1 1 2.3.9 2.7-.1.5.3.8.8.8s.9.3.7.8c-.4 1.2 3.5 9.2 4.5 9.2.5 0 .7.4.4.9-.3.4.6 3.1 1.9 6 1.4 2.8 2.5 5.5 2.5 6s.7 1.4 1.5 2.1c.8.7 1.2 1.6 1 2.1-.3.4.5 1.8 1.7 3 1.3 1.2 1.8 1.9 1.1 1.5-1.3-.7 3.6 9.4 5 10.5.5.3 1 1.2 1.2 2 .9 3.8 1.8 5.9 2.6 5.9.5 0 .9.8.9 1.9 0 1 .7 2.4 1.5 3.1.8.7 1.5 1.9 1.5 2.6 0 .8.9 2.3 2 3.4s2 2.2 2 2.5v1.4c0 .5.6 1.6 1.3 2.3.6.7 2.8 4.4 4.7 8.1 1.9 3.7 3.9 6.7 4.4 6.7.5 0 .7.3.4.6-.6.5 2.6 6 5.1 9 .6.7.7 1.5.4 1.8-.4.3-.1.6.5.6.7 0 1.2.4 1.2 1 0 1 8.2 14 10.3 16.2.6.7 1.3 2 1.5 2.8.2.8.7 1.7 1.1 2 .4.3 1.6 1.9 2.6 3.7 1 1.8 2.3 2.9 2.8 2.6.6-.3.7-.1.4.4-.4.6 1.6 4.1 4.3 7.7 2.8 3.7 5 7 5 7.3 0 .4.7 1.3 1.5 2.2 2.7 2.9 6.5 7.9 6.5 8.6 0 .3.6 1.3 1.3 2 1.5 1.8 2.5 3.1 6.1 8 1.6 2.2 3.7 4.7 4.5 5.6.9.9 2.5 2.9 3.6 4.5 1.8 2.5 4.2 5.6 8.7 10.9.9 1.1 4.1 5 7.1 8.7 3 3.7 5.8 6.4 6.1 6.1.3-.4.6-.2.6.4 0 1.1 1 2.3 10.8 13.2 3.7 4 7.3 8.2 8 9.2.7 1.1 1.8 1.6 2.4 1.3.6-.4.8-.3.5.3-.8 1.3 38.7 40.1 55.3 54.3 3.5 3 7 5.9 7.6 6.5.6.5 3.1 2.6 5.4 4.4 2.3 1.9 4.8 4 5.4 4.6 2.3 2.2 16.4 13.3 26.1 20.5 5.5 4.1 10.2 7.8 10.3 8.2.2.5 1 .8 1.7.8s1.5.4 1.7.8c.2.5 4.6 3.7 9.8 7.2 5.2 3.5 9.7 6.7 9.8 7.2.2.4 1 .8 1.8.8s1.4.4 1.4 1c0 .5.4 1 1 1 1.1 0 10.3 6.2 10.8 7.2.2.5.7.8 1.2.8.8 0 10.9 5.9 12 7 .5.5 1.3 1 8.9 5.2 2 1.1 4.8 2.9 6.3 3.9 1.4 1.1 3.1 1.9 3.7 1.9.6 0 1.1.4 1.1.9s1.7 1.6 3.8 2.5c2 .9 5.5 2.6 7.7 3.9 9.5 5.5 23.8 13 38.5 20.1 3.6 1.7 6.7 3.4 6.8 3.8.2.5 1.2.8 2.2.8 1.1 0 4.2 1.4 7 3 2.8 1.7 5.3 3 5.6 3 .2 0 2.1.7 4.2 1.6 2 1 4.2 1.8 4.7 2 .6.1 3.9 1.5 7.5 3.2 7 3.1 9.7 4.2 10.6 4.1.3 0 1.5.6 2.7 1.3 1.2.8 5.6 2.6 9.7 4.1 4.1 1.6 9.8 3.7 12.5 4.8 2.8 1.2 5.6 2.1 6.3 2.2.6 0 1.2.4 1.2.7 0 .4 1.8 1 4 1.4 2.6.4 4 1.1 4 2.1 0 1.1 1.1 1.5 4 1.5 2.2 0 4 .4 4 .8 0 1.1 6.1 3.2 9.3 3.2 1.5 0 2.7.6 2.7 1.2 0 .9 1.4 1.2 4.1 1.1 3.9-.1 4 0 3.4 2.4-.5 2.2-.3 2.4 1.5 1.8 2.7-.9 14 2.5 14 4.1 0 .7-.5 1.4-1.2 1.6-1.9.7 0 2.6 3.2 3.3 1.7.4 3 1.3 3 2 0 .8.9 1.7 2 2 1.1.3 2 1.5 2 2.6 0 1 .5 1.9 1 1.9.6 0 1-.5 1-1 0-.6.7-1 1.5-1s1.5-.5 1.5-1c0-.6.7-1 1.5-1s1.5.8 1.5 1.7c0 1.9 4.5 4.3 12 6.3 2.5.6 5.9 1.8 7.5 2.5 1.7.7 6.2 2.6 10 4 3.9 1.5 7.5 3.1 8 3.5.6.5 2.8 1.1 5 1.5 5.6 1 12.8 3.4 13.6 4.6.3.6 4.7 1.4 9.6 1.9 5 .4 10.3 1.5 11.9 2.3 1.6.8 7.9 2.2 13.9 3.1 6.1.9 14.5 2.2 18.8 2.8 4.2.6 7.7 1.5 7.7 1.9 0 .3 6 1.2 13.3 1.8 7.2.7 14.3 1.5 15.7 1.8 1.4.3 4.3.7 6.5.8 2.2.2 8.5.8 14 1.4 14.2 1.5 42.2 2.2 86 1.9 61-.2 84.6-1 90.2-2.9 1.9-.6 4.8-.9 6.3-.5 1.6.3 4 0 5.4-.8 2.2-1.1 9.9-1.8 22.4-2 3.3-.1 4.2-.5 4.2-1.9 0-1.9 1.7-2.2 5.4-.7 1.7.6 2.6.6 2.6 0s1.5-1 3.3-1c1.8 0 5.9-.7 9.1-1.5 3.2-.9 8.8-2 12.4-2.5 3.6-.5 6.8-1.3 7.1-1.8.3-.4 5.1-1.4 10.6-2.1 5.5-.7 11-2 12.2-2.7 1.3-.8 4.4-1.7 7-2.1 2.7-.3 5.1-1 5.4-1.5.3-.5 4.8-2 10-3.5 5.2-1.4 9.9-3.2 10.4-3.9.6-.7 2.9-1.6 5-1.9 2.2-.4 4.7-1.5 5.6-2.5.9-.9 4.5-2.2 8-2.9 8.7-1.7 8.9-1.8 8.9-3.7 0-1.9 3.8-5.3 6-5.4.8 0 2.1-.9 2.8-2 .7-1.1 2-2 3-2 1.1 0 2.4-1.2 3.1-2.6.9-2.1 1.6-2.5 3.6-2 1.9.5 2.5.2 2.5-1 0-2.3 2.4-4.3 5.9-5 1.7-.4 3.1-1 3.1-1.4 0-1.5 5.3-2.2 6.1-.8.6.9 1.2.8 2.7-.5 1-.9 2.4-1.7 3-1.7.6 0 1.7-.9 2.4-1.9.8-1.1 2.7-2.3 4.3-2.7 1.7-.4 3.5-1 4-1.4.6-.4 2.8-1.3 5-2 2.2-.6 5.5-1.8 7.2-2.6 1.8-.8 6.3-2.6 10-4 3.8-1.4 7.4-3.1 8.2-3.7.8-.7 1.6-1.1 1.8-.9.2.1 2.4-.6 4.9-1.8 2.6-1.1 4.9-2 5.1-2 .2 0 2.9-1.1 5.9-2.5 3-1.4 6.1-2.5 6.8-2.5.8 0 1.8-1.2 2.4-2.8 2-5.1 5.3-15.1 5.7-17 .1-1 1-3.5 1.9-5.5.8-2 1.3-3.7 1.1-3.7-.2 0 .2-1.8 1-4s1.2-4 .9-4c-.2 0 .2-1.6 1-3.5s1.3-3.5 1.1-3.5c-.2 0 .2-1.8 1-4s1.2-4 1-4c-.3 0 0-1.1.5-2.6.6-1.4 1.2-3.9 1.5-5.7.3-1.8.8-3.9 1-4.7 1.1-3.5 6.8-31.4 8.5-41.5.6-3.3 1.5-8.3 2-11 .5-2.8 1.2-7 1.5-9.5.3-2.5.8-5.6 1-7 .3-1.4.7-4.8 1-7.5.3-2.8.8-6.3 1.1-7.8.3-1.5.7-4.4.9-6.5.2-2 .7-6.6 1.1-10.2.4-3.6.8-8 .8-9.7.1-1.8.3-3.3.6-3.3s.5-1.9.5-4.3c.1-2.3.4-8.3.9-13.2 1-10.6 1.1-13.8 2.1-39.5 1.2-32.1.8-71.4-1-96.5-2.6-35.5-2.3-31.8-4-45.5-.7-5.5-.9-6.7-1.9-12.5-.3-1.7-.8-4.8-1.2-7-1-6.8-7.4-35.5-8.3-37.3-.4-.9-.6-2.2-.4-2.9.2-.6-.1-1.4-.6-1.8-.6-.3-1.1-1.6-1.1-2.9 0-1.2-1.4-6.5-3.1-11.7-1.7-5.2-3.2-10.3-3.5-11.4-.2-1.1-2.2-7.2-4.5-13.5-2.2-6.3-4.1-12-4.3-12.5-.2-1.2-8-21.3-10.4-27-.9-2.1-1.7-4.2-1.8-4.5 0-.3-1-2.7-2.2-5.3-1.2-2.7-2.2-5-2.2-5.3 0-.2-1.1-2.7-2.4-5.6-1.3-2.9-4.7-10.5-7.6-16.8-7.5-16.6-28.9-59.2-30.8-61.3-.8-.9-1.2-1.7-.8-1.7.3 0-.5-1.8-1.9-4s-2.5-4.2-2.5-4.4c0-.2-3-5.7-6.7-12.3-3.8-6.5-7.9-13.9-9.3-16.6-1.4-2.6-2.8-4.7-3.2-4.7-.5 0-.8-.5-.8-1.2 0-1.1-7.7-14.6-9-15.8-.3-.3-1.8-3-3.4-6-1.6-3-3.3-6-3.8-6.7-2-2.5-7.8-12.6-7.8-13.4 0-.5-.4-.9-.9-.9s-1.3-.9-1.6-2c-.3-1.1-1.2-2.6-1.8-3.3-.7-.7-2.1-3-3.2-5-2.8-5.3-36.5-57.8-39.2-61.2-.4-.6-2.8-4.2-5.3-8-2.4-3.9-4.7-7.2-5-7.5-.3-.3-2.1-3-4-6s-3.7-5.7-4-6c-.4-.3-3.7-5.2-7.5-11-3.9-5.8-7.4-11-8-11.7-.5-.7-1.6-1.9-2.3-2.8-.7-.8-.9-1.5-.5-1.5s.4-.4-.2-.8c-1-.7-4-4.8-13.6-18.9-3.1-4.6-6-7.9-6.5-7.5-.5.4-.6.3-.2-.2.8-.9-8.9-15.6-10.3-15.6-.5 0-.8-.3-.7-.8.3-.6-5.1-8.9-7.7-11.9-3-3.5-3.5-4.3-3-4.3.4 0 0-.6-.7-1.4-.7-.7-2-2.4-2.8-3.6-.8-1.2-3.2-4.5-5.3-7.3-2-2.9-4.3-6.1-5.1-7.2-.8-1.1-3.4-4.7-5.8-8s-5.4-7.7-6.8-9.7c-1.4-2.1-2.8-3.8-3.2-3.8-.5 0-.8-.4-.8-1 0-.5-3.4-5.5-7.5-11.1-4.1-5.5-7.5-10.5-7.5-11s-.7-.9-1.5-.9-1.4-.4-1.3-.9c.2-.5-1.3-3.1-3.3-5.8-1.9-2.6-6.8-9.3-10.8-14.8-3.9-5.5-8.2-11.2-9.5-12.7-1.3-1.4-2.2-2.8-2-3.1.2-.2-.5-1.2-1.6-2.2-1.1-1-2-2.4-2-3.2 0-.7-.3-1.3-.7-1.3-.5 0-2.3-2.3-4.2-5-1.9-2.8-3.8-5-4.3-5s-.6-.4-.3-1 .2-1-.2-1c-.5 0-1.7-1.3-2.6-3-1-1.6-2.3-3.5-3-4.2-.7-.7-2.4-2.9-3.7-4.8-1.3-1.9-2.7-3.7-3-4-.3-.3-1.6-2.2-3-4.2-1.4-2.1-2.9-3.8-3.3-3.8-.5 0-.5-.5-.2-1 .3-.6.3-1-.2-1-.4 0-1.9-1.7-3.3-3.8-1.4-2-3.3-4.6-4.2-5.6-1-1.1-3-3.8-4.5-6-1.6-2.3-3.1-4.2-3.5-4.4-.5-.2-.8-1-.8-1.8s-.4-1.4-.8-1.4c-.5 0-3.3-3.5-6.2-7.8-3-4.2-5.7-7.9-6-8.2-.3-.3-2.2-2.7-4.1-5.5-3.8-5.4-5.8-8.1-7.6-10-.7-.8-1.3-1.8-1.3-2.4 0-.6-.4-1.1-.8-1.1s-1.5-1.2-2.4-2.8c-.9-1.5-2.6-3.8-3.7-5.2-2.9-3.6-3.4-4.2-5.2-7-.9-1.4-2.5-3.5-3.5-4.7-1.1-1.2-4.4-5.8-7.4-10.2-3-4.4-6.1-8-6.8-8.1-.7 0-1.1-.4-.8-.9.3-.4-.2-1.8-1.2-2.9-.9-1.2-3.3-4.3-5.2-7.1-1.9-2.8-3.9-5-4.3-5.1-.5 0-.5-.5-.2-1 .3-.6.2-1-.4-1-.5 0-2-1.7-3.2-3.8-1.3-2-2.9-4.3-3.6-5-.7-.8-2.7-3.4-4.5-6-1.8-2.6-4-5.6-5-6.7-.9-1.1-1.8-2.5-1.9-3-.2-.6-.7-1.5-1.3-2.1-.6-.6-3.1-3.8-5.6-7.2-2.4-3.4-4.8-6.2-5.2-6.2-.5 0-.8-.6-.8-1.3 0-.6-1.1-2.5-2.5-4.1-1.4-1.6-2.5-3.3-2.5-3.7 0-.4-1.5-2.2-3.2-4-1.8-1.8-2.7-2.9-1.9-2.4.9.5.7-.2-.5-1.8-1-1.5-2.3-2.7-2.7-2.7-.5 0-.5-.5-.2-1 .3-.6.2-1-.2-1-.5 0-1.9-1.8-3.3-4s-2.8-4-3.3-4c-.4 0-.6-.4-.3-.8.3-.5-.4-1.4-1.4-2.2-1-.8-1.7-1.7-1.4-2.2.3-.4.1-.8-.4-.8s-1.5-1.4-2.2-3c-.7-1.7-1.6-3-2.1-3s-.9-.7-.9-1.5-.4-1.5-1-1.5c-.5 0-1-.6-1-1.4 0-.8-.3-1.6-.7-1.8-1-.4-7.3-9.4-7.3-10.3 0-.3-.6-1.3-1.2-2-3-3.4-3.8-4.5-3.8-5.5 0-.6-.6-1.8-1.2-2.5-2.4-2.6-3.3-4-5.3-7.8-1.1-2-2.2-3.7-2.6-3.7-.3 0-1.4-1.8-2.4-4s-2.1-4-2.5-4c-.4 0-1.5-1.8-2.5-4s-2.2-4-2.7-4c-.4 0-.8-.5-.8-1.1 0-1.4-9-16.3-10.1-16.7-.5-.2-.7-.8-.3-1.3.3-.5 0-.9-.5-.9-.6 0-1.1-.9-1.1-2s-.4-2-.8-2c-.5 0-1.9-2.3-3.1-5-1.2-2.8-2.7-5-3.2-5-.6 0-.8-.4-.4-.9.3-.5-.1-1.5-.8-2.3-.7-.7-2.6-3.9-4.1-7.1-1.6-3.1-3.3-5.7-3.8-5.7-.4 0-.7-.3-.6-.8.3-1-3.4-8.6-4.6-9.4-.6-.4-.8-.8-.4-.8s-.7-2.4-2.4-5.3c-1.7-2.8-3.1-5.8-3.1-6.5 0-.6-.4-1.2-.8-1.2-.6 0-1.5-2.2-1.7-4.4 0-.5-.4-1.2-.9-1.5-.7-.5-4.4-7.8-11.4-22.6-1.3-2.8-2.8-5.3-3.2-5.6-.5-.3-.7-.8-.6-1 .2-.2-.5-2.4-1.6-4.9-1-2.5-1.8-4.8-1.7-5.3.1-.4-.3-.7-.9-.7-.5 0-.7-.5-.4-1 .3-.6.1-1-.5-1s-.9-.4-.6-.8c.2-.4-.8-3.1-2.4-6-1.6-2.9-2.5-5-2-4.7.4.3-.5-2.1-2.1-5.3-1.6-3.1-2.9-6.2-2.9-6.8 0-.6-.9-2.8-1.9-5-1.1-2.1-1.7-4.2-1.4-4.6.2-.5-.1-.8-.7-.8s-.8-.5-.5-1c.3-.6.1-1-.4-1-.6 0-1.1-.9-1.1-2 0-2.3-2.1-7.2-3.5-8.2-.5-.4-.7-.8-.3-.8.4 0-.6-3.7-2.3-8.3-1.7-4.5-3.2-8.9-3.4-9.7-.2-.8-1.2-4-2.3-7-1.2-3-3.3-9.6-4.8-14.5-1.4-5-3-9.5-3.5-10.1-.5-.6-.7-1.3-.4-1.5.2-.3-.7-4.3-2.1-8.9-1.4-4.7-2.7-9.4-2.9-10.5-1.5-7.3-2.9-12.2-3.6-13.1-.5-.6-.6-1.4-.3-1.7.3-.3.2-1.2-.2-1.9-.5-.7-.9-2.2-1-3.3-.3-2.5-1.2-7.1-2.1-10.5-1-3.9-1.2-5.3-1.5-8.3-.1-1.5-.5-2.7-.9-2.7s-.6-.8-.5-1.7c.2-1-.1-3.6-.6-5.8-1.1-4.5-1.5-6.8-2.3-14-.3-2.8-.7-5.7-1-6.5-.4-1.5-.8-4.1-2-15-2.2-19.5-2.9-33.8-2.9-60.5-.1-22.5.8-46 1.9-54 .3-2.2.7-7.2.9-11 .3-3.9.8-9.5 1.2-12.5.3-3 .7-6.7.8-8.3 0-1.5.3-2.7.6-2.7s.7-1.7.8-3.8c.6-5.5 1-8.7 1.2-8.7.1 0 .3-1.1.5-2.5s.6-4.3 1-6.5.9-5.1 1-6.5c.2-1.4.4-2.5.5-2.5.1 0 .3-1.4.4-3 .2-1.7.9-5.7 1.6-9 .8-3.3 1.4-6.5 1.5-7 .1-.6.3-1.2.4-1.5.2-.3.4-1.4.6-2.5.2-1.1.6-3.1 1-4.5s.8-3.5 1-4.7c.2-1.1.6-2.9.9-4 .3-1 .8-3.6 1.2-5.7.3-2.2 1-5 1.5-6.3 1.3-3.4.4-2.8-2.2 1.4z"/></svg>